<?xml version="1.0" encoding="UTF-8" standalone="no"?>
<!DOCTYPE svg PUBLIC "-//W3C//DTD SVG 1.1//EN" "http://www.w3.org/Graphics/SVG/1.1/DTD/svg11.dtd">
<svg width="100%" height="100%" viewBox="0 0 3840 3840" version="1.1" xmlns="http://www.w3.org/2000/svg" xmlns:xlink="http://www.w3.org/1999/xlink" xml:space="preserve" xmlns:serif="http://www.serif.com/" style="fill-rule:evenodd;clip-rule:evenodd;stroke-linecap:round;stroke-linejoin:round;stroke-miterlimit:1.5;">
    <g transform="matrix(1,0,0,1,0,-4208.94)">
        <g id="Artboard1" transform="matrix(1,0,0,1,0,4208.94)">
            <rect x="0" y="0" width="3840" height="3840" style="fill:none;"/>
            <g transform="matrix(2.04082,0,0,2.04082,-1301.72,-10607.7)">
                <path d="M885.14,6589.99L1142.77,6437.21L1394.4,6485.14L1822.78,6221.53L1978.56,5754.2L2272.13,5652.35" style="fill:none;stroke:black;stroke-width:62.06px;"/>
            </g>
            <g transform="matrix(1,0,0,1,0,-4208.94)">
                <circle cx="504.699" cy="7050.27" r="152.082" style="fill:white;stroke:black;stroke-width:100px;"/>
            </g>
            <g transform="matrix(1,0,0,1,0,-4208.94)">
                <circle cx="1030.47" cy="6738.47" r="159.712" style="fill:white;stroke:black;stroke-width:100px;"/>
            </g>
            <g transform="matrix(1,0,0,1,0,-4208.94)">
                <circle cx="1544.01" cy="6836.29" r="110.563" style="fill:white;stroke:black;stroke-width:100px;"/>
            </g>
            <g transform="matrix(1,0,0,1,0,-4208.94)">
                <circle cx="2418.26" cy="6298.29" r="127.544" style="fill:white;stroke:black;stroke-width:100px;"/>
            </g>
            <g transform="matrix(1,0,0,1,0,-4208.94)">
                <circle cx="2736.17" cy="5344.57" r="160.082" style="fill:white;stroke:black;stroke-width:100px;"/>
            </g>
            <g transform="matrix(1,0,0,1,0,-4208.94)">
                <circle cx="3335.3" cy="5136.71" r="99.419" style="fill:white;stroke:black;stroke-width:100px;"/>
            </g>
            <g transform="matrix(1,0,0,1,319.424,-4143.37)">
                <path d="M1433.45,5964.51L1433.45,6245.86C1433.45,6323.49 1370.42,6386.53 1292.78,6386.53L1011.43,6386.53C933.791,6386.53 870.757,6323.49 870.757,6245.86L870.757,5964.51C870.757,5886.87 933.791,5823.84 1011.43,5823.84L1292.78,5823.84C1370.42,5823.84 1433.45,5886.87 1433.45,5964.51Z" style="fill:white;stroke:black;stroke-width:100px;"/>
            </g>
            <g transform="matrix(1,0,0,1,2025.49,-4424.72)">
                <path d="M1433.45,5964.51L1433.45,6245.86C1433.45,6323.49 1370.42,6386.53 1292.78,6386.53L1011.43,6386.53C933.791,6386.53 870.757,6323.49 870.757,6245.86L870.757,5964.51C870.757,5886.87 933.791,5823.84 1011.43,5823.84L1292.78,5823.84C1370.42,5823.84 1433.45,5886.87 1433.45,5964.51Z" style="fill:white;stroke:black;stroke-width:100px;"/>
            </g>
            <g transform="matrix(1,0,0,1,1302.72,-3367.27)">
                <path d="M1433.45,5964.51L1433.45,6245.86C1433.45,6323.49 1370.42,6386.53 1292.78,6386.53L1011.43,6386.53C933.791,6386.53 870.757,6323.49 870.757,6245.86L870.757,5964.51C870.757,5886.87 933.791,5823.84 1011.43,5823.84L1292.78,5823.84C1370.42,5823.84 1433.45,5886.87 1433.45,5964.51Z" style="fill:white;stroke:black;stroke-width:100px;"/>
            </g>
            <g transform="matrix(1,0,0,1,857.266,-4969.55)">
                <path d="M1433.45,5964.51L1433.45,6245.86C1433.45,6323.49 1370.42,6386.53 1292.78,6386.53L1011.43,6386.53C933.791,6386.53 870.757,6323.49 870.757,6245.86L870.757,5964.51C870.757,5886.87 933.791,5823.84 1011.43,5823.84L1292.78,5823.84C1370.42,5823.84 1433.45,5886.87 1433.45,5964.51Z" style="fill:white;stroke:black;stroke-width:100px;"/>
            </g>
        </g>
    </g>
</svg>
